<?xml version="1.0" standalone="no"?>
<!DOCTYPE svg PUBLIC "-//W3C//DTD SVG 20010904//EN"
 "http://www.w3.org/TR/2001/REC-SVG-20010904/DTD/svg10.dtd">
<svg version="1.0" xmlns="http://www.w3.org/2000/svg"
 width="16.000000pt" height="16.000000pt" viewBox="0 0 16.000000 16.000000"
 preserveAspectRatio="xMidYMid meet">
<metadata>
Created by potrace 1.11, written by Peter Selinger 2001-2013
</metadata>
<g transform="translate(0.000000,16.000000) scale(0.001708,-0.001708)"
fill="#000000" stroke="none">
<path d="M5255 9219 c-87 -85 -195 -190 -240 -234 -76 -73 -510 -495 -695
-675 -43 -41 -195 -190 -340 -330 -144 -140 -298 -289 -342 -332 -44 -42 -192
-186 -330 -320 -138 -133 -290 -281 -338 -328 -378 -367 -638 -619 -783 -760
-202 -195 -275 -269 -341 -341 -53 -59 -200 -218 -256 -279 -19 -20 -71 -77
-115 -125 -44 -49 -89 -98 -100 -110 -11 -11 -44 -48 -74 -80 -30 -33 -82 -89
-116 -125 -33 -36 -126 -136 -205 -224 -208 -227 -236 -256 -249 -256 -8 0
-11 -170 -11 -649 l0 -649 2358 0 c1296 -1 2368 -1 2382 -2 23 0 20 -5 -32
-53 -31 -28 -154 -146 -273 -262 -120 -115 -245 -237 -280 -270 -34 -33 -164
-159 -290 -280 -125 -121 -253 -245 -285 -275 -32 -30 -156 -150 -276 -266
-121 -117 -249 -240 -285 -275 -56 -54 -296 -285 -544 -524 -34 -33 -102 -99
-151 -147 l-90 -86 169 -174 c93 -95 300 -307 461 -472 160 -164 293 -302 296
-307 7 -10 42 22 287 257 103 100 217 210 253 244 36 34 148 141 249 238 101
98 205 197 231 222 26 25 132 126 235 225 103 99 209 200 234 225 26 25 143
137 259 249 116 112 220 211 230 220 11 9 111 104 223 212 112 108 233 225
269 259 36 34 143 137 239 228 192 185 224 215 491 470 231 221 448 439 700
701 272 284 271 283 506 527 353 365 363 376 357 392 -4 8 -7 306 -7 661 l-1
646 -2390 2 c-1314 1 -2393 2 -2397 2 -6 1 60 67 298 297 51 49 206 200 345
335 140 136 295 286 344 334 50 48 207 201 350 340 143 139 304 295 357 346
53 52 208 203 345 335 136 133 294 286 350 341 l103 99 -88 91 c-48 50 -197
205 -332 344 -135 139 -304 313 -376 387 l-130 135 -159 -154z"/>
</g>
</svg>
